<svg version="1.0" xmlns="http://www.w3.org/2000/svg" width="128" height="128" viewBox="0 0 96 96"><path d="M10.2 6C4.2 9.6 4 11.3 4 48s.2 38.4 6.2 42c3.1 1.9 5 2 37.8 2 32.5 0 34.7-.1 37.7-2 6.2-3.7 6.3-4.4 6.3-41.5 0-37.2-.2-38.8-6.2-42.5-3.1-1.9-5-2-37.8-2s-34.7.1-37.8 2zM24 18v6H12v-4.4c0-5.7 1.9-7.6 7.6-7.6H24v6zm40 10v16H32V12h32v16zm18.4-14.4c1 .9 1.6 3.3 1.6 6V24H72V12h4.4c2.7 0 5.1.6 6 1.6zM24 38v6H12V32h12v6zm60 0v6H72V32h12v6zM24 58v6H12V52h12v6zm40 10v16H32V52h32v16zm20-10v6H72V52h12v6zM24 78v6h-4.4c-5.7 0-7.6-1.9-7.6-7.6V72h12v6zm60-1.6c0 5.7-1.9 7.6-7.6 7.6H72V72h12v4.4z"/></svg>