<svg aria-hidden="true" style="width:0;height:0;position:absolute;overflow:hidden" xmlns="http://www.w3.org/2000/svg"><defs><symbol id="icon-close" viewBox="0 0 32 32"><path stroke-width="2.133" d="m8.533 8.533 14.933 14.933m-14.933.001L23.466 8.534"/></symbol><symbol id="icon-love" viewBox="0 0 34 32"><path fill="#ff6b08" style="fill:var(--color1,#ff6b08)" d="m17.231 31.705-2.412-2.412C5.859 21.367.001 16.025.001 9.478.001 4.136 4.136.001 9.478.001c2.929 0 5.858 1.378 7.754 3.618 1.895-2.24 4.825-3.618 7.754-3.618 5.342 0 9.477 4.135 9.477 9.477 0 6.548-5.858 11.889-14.818 19.815l-2.412 2.412z"/></symbol><symbol id="icon-search" viewBox="0 0 32 32"><path d="M14.667 25.333c5.891 0 10.667-4.776 10.667-10.667S20.558 3.999 14.667 3.999 4 8.775 4 14.666s4.776 10.667 10.667 10.667zM28 28l-5.8-5.8"/></symbol><symbol id="icon-logo" viewBox="0 0 32 32"><path d="M26.427 2.667H5.574a2.907 2.907 0 0 0-2.907 2.907v20.853a2.907 2.907 0 0 0 2.907 2.907h20.853a2.907 2.907 0 0 0 2.907-2.907V5.574a2.907 2.907 0 0 0-2.907-2.907zm-17.094 0v26.667M22.667 2.667v26.667M2.667 16h26.667M2.667 9.333h6.667M2.667 22.667h6.667m13.333 0h6.667M22.667 9.333h6.667"/></symbol><symbol id="icon-arrow-left" viewBox="0 0 32 32"><path stroke-linejoin="round" stroke-linecap="round" stroke-width="2.666" d="M25.334 16H6.666M16 25.334 6.666 16 16 6.666"/></symbol><symbol id="icon-arrow-right" viewBox="0 0 32 32"><path stroke-linejoin="round" stroke-linecap="round" stroke-width="2.666" d="M6.666 16h18.668M16 25.334 25.334 16 16 6.666"/></symbol><symbol id="icon-cross" viewBox="0 0 32 32"><path fill="none" stroke="#000" style="stroke:var(--color1,#000)" stroke-width="2.133" d="m8.533 8.533 14.933 14.933"/><path d="M22.712 7.779 7.779 22.712l1.508 1.508L24.22 9.287z"/></symbol><symbol id="icon-modal-close" viewBox="0 0 32 32"><path d="M23.733 10.304 22.229 8.8l-5.963 5.963L10.303 8.8l-1.504 1.504 5.963 5.963-5.963 5.963 1.504 1.504 5.963-5.963 5.963 5.963 1.504-1.504-5.963-5.963 5.963-5.963z"/></symbol><symbol id="icon-film-reel" viewBox="0 0 32 32"><path d="M27.092 4.908C24.129 1.945 20.19.314 16 .314S7.871 1.946 4.908 4.908.314 11.81.314 16s1.632 8.129 4.594 11.092S11.81 31.686 16 31.686s8.129-1.632 11.092-4.594S31.686 20.19 31.686 16s-1.632-8.129-4.594-11.092zm-.719 21.465C23.602 29.144 19.918 30.67 16 30.67s-7.602-1.526-10.373-4.297S1.33 19.918 1.33 16 2.856 8.398 5.627 5.627 12.082 1.33 16 1.33s7.602 1.526 10.373 4.297S30.67 12.082 30.67 16s-1.526 7.602-4.297 10.373z"/><path d="M24.673 11.697c-2.373 0-4.303 1.93-4.303 4.303s1.93 4.303 4.303 4.303 4.303-1.93 4.303-4.303-1.93-4.303-4.303-4.303zM21.387 16a3.29 3.29 0 0 1 3.261-3.286c.399 1.048.601 2.152.601 3.286s-.202 2.238-.601 3.286A3.289 3.289 0 0 1 21.387 16zm4.405 3.09c.314-.995.474-2.031.474-3.09s-.16-2.095-.474-3.09c1.263.459 2.168 1.671 2.168 3.09s-.905 2.631-2.168 3.09zM7.327 11.697c-2.373 0-4.303 1.93-4.303 4.303s1.93 4.303 4.303 4.303S11.63 18.373 11.63 16s-1.93-4.303-4.303-4.303zM4.04 16c0-1.42.905-2.631 2.168-3.09-.314.995-.474 2.031-.474 3.09s.16 2.095.474 3.09A3.293 3.293 0 0 1 4.04 16zm3.312 3.286c-.399-1.048-.601-2.151-.601-3.286s.202-2.238.601-3.286c1.801.013 3.262 1.482 3.262 3.286s-1.461 3.272-3.261 3.286zM16 3.024c-2.373 0-4.303 1.93-4.303 4.303S13.627 11.63 16 11.63s4.303-1.93 4.303-4.303S18.373 3.024 16 3.024zm0 1.016c1.42 0 2.631.905 3.09 2.168-.995-.314-2.031-.474-3.09-.474s-2.095.16-3.09.474A3.293 3.293 0 0 1 16 4.04zm0 6.573a3.29 3.29 0 0 1-3.286-3.261c1.048-.399 2.152-.601 3.286-.601s2.238.202 3.286.601A3.29 3.29 0 0 1 16 10.614zm0 9.757c-2.373 0-4.303 1.93-4.303 4.303s1.93 4.303 4.303 4.303 4.303-1.93 4.303-4.303S18.373 20.37 16 20.37zm0 1.017a3.29 3.29 0 0 1 3.286 3.262c-1.048.399-2.152.601-3.286.601s-2.238-.202-3.286-.601A3.29 3.29 0 0 1 16 21.388zm0 6.572a3.292 3.292 0 0 1-3.09-2.168c.995.314 2.031.474 3.09.474s2.095-.16 3.09-.474A3.293 3.293 0 0 1 16 27.959zm1.897-8.74c.729 0 1.321-.593 1.321-1.321s-.593-1.321-1.321-1.321-1.321.593-1.321 1.321.593 1.321 1.321 1.321zm0-1.627a.306.306 0 0 1 0 .61.306.306 0 0 1 0-.61zm0-2.168c.729 0 1.321-.593 1.321-1.321s-.593-1.321-1.321-1.321-1.321.593-1.321 1.321.593 1.321 1.321 1.321zm0-1.626a.306.306 0 0 1 0 .61.306.306 0 0 1 0-.61zm-3.794 5.421c.729 0 1.321-.593 1.321-1.321s-.593-1.321-1.321-1.321-1.321.593-1.321 1.321.593 1.321 1.321 1.321zm0-1.627a.306.306 0 0 1 0 .61.306.306 0 0 1 0-.61zm0-2.168c.729 0 1.321-.593 1.321-1.321s-.593-1.321-1.321-1.321-1.321.593-1.321 1.321.593 1.321 1.321 1.321zm0-1.626a.306.306 0 0 1 0 .61.306.306 0 0 1 0-.61z"/></symbol><symbol id="one-finger-swipe-up" viewBox="0 0 32 32"><path d="M18.991 27.988c-3.459-.175-5.569-2.172-7.253-5.003-3.912-6.581-6.713-9.594-5.625-10.688 1.109-1.116 3.822 1.303 5.878 3.503V5.509a1.5 1.5 0 1 1 3 0V15h1v-4.509a1.5 1.5 0 0 1 3 0V14h1v-2.509c0-.828.672-1.491 1.5-1.491.834 0 1.5.669 1.5 1.491V15h1v-2.494a1.5 1.5 0 1 1 3 0V20.5a7.501 7.501 0 0 1-7 7.484V18.95l3.25 3.25.75-.75-4.5-4.5-4.5 4.5.75.75 3.25-3.25v9.037z"/></symbol><symbol id="circle-up" viewBox="0 0 32 32"><path d="M0 16c0 8.837 7.163 16 16 16s16-7.163 16-16S24.837 0 16 0 0 7.163 0 16zm29 0c0 7.18-5.82 13-13 13S3 23.18 3 16 8.82 3 16 3s13 5.82 13 13z"/><path d="m22.086 20.914 2.829-2.829-8.914-8.914-8.914 8.914 2.828 2.828 6.086-6.086z"/></symbol></defs></svg>