<?xml version="1.0" standalone="no"?>
<!DOCTYPE svg PUBLIC "-//W3C//DTD SVG 20010904//EN"
 "http://www.w3.org/TR/2001/REC-SVG-20010904/DTD/svg10.dtd">
<svg version="1.0" xmlns="http://www.w3.org/2000/svg"
 width="96.000000pt" height="96.000000pt" viewBox="0 0 96.000000 96.000000"
 preserveAspectRatio="xMidYMid meet">
<metadata>
Created by potrace 1.14, written by Peter Selinger 2001-2017
</metadata>
<g transform="translate(0.000000,96.000000) scale(0.100000,-0.100000)"
fill="#000000" stroke="none">
<path d="M102 900 c-60 -36 -62 -53 -62 -420 0 -367 2 -384 62 -420 31 -19 50
-20 378 -20 325 0 347 1 377 20 62 37 63 44 63 415 0 372 -2 388 -62 425 -31
19 -50 20 -378 20 -328 0 -347 -1 -378 -20z m138 -120 l0 -60 -60 0 -60 0 0
44 c0 57 19 76 76 76 l44 0 0 -60z m400 -100 l0 -160 -160 0 -160 0 0 160 0
160 160 0 160 0 0 -160z m184 144 c10 -9 16 -33 16 -60 l0 -44 -60 0 -60 0 0
60 0 60 44 0 c27 0 51 -6 60 -16z m-584 -244 l0 -60 -60 0 -60 0 0 60 0 60 60
0 60 0 0 -60z m600 0 l0 -60 -60 0 -60 0 0 60 0 60 60 0 60 0 0 -60z m-600
-200 l0 -60 -60 0 -60 0 0 60 0 60 60 0 60 0 0 -60z m400 -100 l0 -160 -160 0
-160 0 0 160 0 160 160 0 160 0 0 -160z m200 100 l0 -60 -60 0 -60 0 0 60 0
60 60 0 60 0 0 -60z m-600 -200 l0 -60 -44 0 c-57 0 -76 19 -76 76 l0 44 60 0
60 0 0 -60z m600 16 c0 -57 -19 -76 -76 -76 l-44 0 0 60 0 60 60 0 60 0 0 -44z"/>
</g>
</svg>
