<svg aria-hidden="true" style="position:absolute;width:0;height:0;overflow:hidden" xmlns="http://www.w3.org/2000/svg">
  <defs>
    <symbol id="icon-close" viewBox="0 0 32 32">
      <path stroke-width="2.133" d="m8.533 8.533 14.933 14.933m-14.933.001L23.466 8.534"/>
    </symbol>
    <symbol id="icon-love" viewBox="0 0 34 32">
      <path fill="#ff6b08" style="fill:var(--color1, #ff6b08)" d="m17.231 31.705-2.412-2.412C5.859 21.367.001 16.025.001 9.478.001 4.136 4.136.001 9.478.001c2.929 0 5.858 1.378 7.754 3.618 1.895-2.24 4.825-3.618 7.754-3.618 5.342 0 9.477 4.135 9.477 9.477 0 6.548-5.858 11.889-14.818 19.815l-2.412 2.412z"/>
    </symbol>
    <symbol id="icon-search" viewBox="0 0 32 32">
      <path d="M14.667 25.333c5.891 0 10.667-4.776 10.667-10.667S20.558 3.999 14.667 3.999v0C8.776 3.999 4 8.775 4 14.666s4.776 10.667 10.667 10.667v0zM28 28l-5.8-5.8"/>
    </symbol>
    <symbol id="icon-logo" viewBox="0 0 32 32">
      <path d="M26.427 2.667H5.574a2.907 2.907 0 0 0-2.907 2.907v20.853a2.907 2.907 0 0 0 2.907 2.907v0h20.853a2.907 2.907 0 0 0 2.907-2.907v0V5.574a2.907 2.907 0 0 0-2.907-2.907v0zm-17.094 0v26.667M22.667 2.667v26.667M2.667 16h26.667M2.667 9.333h6.667M2.667 22.667h6.667m13.333 0h6.667M22.667 9.333h6.667"/>
    </symbol>
    <symbol id="icon-arrow-left" viewBox="0 0 32 32">
      <path stroke-linejoin="round" stroke-linecap="round" stroke-miterlimit="4" stroke-width="2.666" d="M25.334 16h-18.668M16 25.334l-9.334-9.334 9.334-9.334"></path>
    </symbol>
    <symbol id="icon-arrow-right" viewBox="0 0 32 32">
      <path stroke-linejoin="round" stroke-linecap="round" stroke-miterlimit="4" stroke-width="2.666" d="M6.666 16h18.668M16 25.334l9.334-9.334-9.334-9.334"></path>
    </symbol>
    <symbol id="icon-cross" viewBox="0 0 32 32">
      <path fill="none" stroke="#000" style="stroke: var(--color1, #000)" stroke-linejoin="miter" stroke-linecap="butt" stroke-miterlimit="4" stroke-width="2.1333" d="M8.533 8.533l14.933 14.933"></path>
      <path d="M22.712 7.779l-14.933 14.933 1.508 1.508 14.933-14.933z"></path>
    </symbol>
    <symbol id="icon-modal-close" viewBox="0 0 32 32">
      <path d="M23.733 10.304l-1.504-1.504-5.963 5.963-5.963-5.963-1.504 1.504 5.963 5.963-5.963 5.963 1.504 1.504 5.963-5.963 5.963 5.963 1.504-1.504-5.963-5.963 5.963-5.963z"></path>
    </symbol>
    <symbol id="icon-film-reel" viewBox="0 0 32 32">
      <path d="M27.092 4.908c-2.963-2.963-6.902-4.594-11.092-4.594s-8.129 1.632-11.092 4.594-4.594 6.902-4.594 11.092 1.632 8.129 4.594 11.092 6.902 4.594 11.092 4.594 8.129-1.632 11.092-4.594 4.594-6.902 4.594-11.092-1.632-8.129-4.594-11.092zM26.373 26.373c-2.771 2.771-6.455 4.297-10.373 4.297s-7.602-1.526-10.373-4.297-4.297-6.455-4.297-10.373 1.526-7.602 4.297-10.373 6.455-4.297 10.373-4.297 7.602 1.526 10.373 4.297 4.297 6.455 4.297 10.373-1.526 7.602-4.297 10.373z"></path>
      <path d="M24.673 11.697c-2.373 0-4.303 1.93-4.303 4.303s1.93 4.303 4.303 4.303 4.303-1.93 4.303-4.303-1.93-4.303-4.303-4.303zM21.387 16c0-1.804 1.461-3.272 3.261-3.286 0.399 1.048 0.601 2.152 0.601 3.286s-0.202 2.238-0.601 3.286c-1.801-0.013-3.261-1.482-3.261-3.286zM25.792 19.090c0.314-0.995 0.474-2.031 0.474-3.090s-0.16-2.095-0.474-3.090c1.263 0.459 2.168 1.671 2.168 3.090s-0.905 2.631-2.168 3.090zM7.327 11.697c-2.373 0-4.303 1.93-4.303 4.303s1.93 4.303 4.303 4.303 4.303-1.93 4.303-4.303-1.93-4.303-4.303-4.303zM4.040 16c0-1.42 0.905-2.631 2.168-3.090-0.314 0.995-0.474 2.031-0.474 3.090s0.16 2.095 0.474 3.090c-1.263-0.459-2.168-1.671-2.168-3.090zM7.352 19.286c-0.399-1.048-0.601-2.151-0.601-3.286s0.202-2.238 0.601-3.286c1.801 0.013 3.262 1.482 3.262 3.286s-1.461 3.272-3.261 3.286zM16 3.024c-2.373 0-4.303 1.93-4.303 4.303s1.93 4.303 4.303 4.303 4.303-1.93 4.303-4.303-1.93-4.303-4.303-4.303zM16 4.040c1.42 0 2.631 0.905 3.090 2.168-0.995-0.314-2.031-0.474-3.090-0.474s-2.095 0.16-3.090 0.474c0.459-1.263 1.671-2.168 3.090-2.168zM16 10.613c-1.804 0-3.272-1.461-3.286-3.261 1.048-0.399 2.152-0.601 3.286-0.601s2.238 0.202 3.286 0.601c-0.013 1.801-1.482 3.262-3.286 3.262zM16 20.37c-2.373 0-4.303 1.93-4.303 4.303s1.93 4.303 4.303 4.303 4.303-1.93 4.303-4.303-1.93-4.303-4.303-4.303zM16 21.387c1.804 0 3.272 1.461 3.286 3.262-1.048 0.399-2.152 0.601-3.286 0.601s-2.238-0.202-3.286-0.601c0.014-1.801 1.482-3.261 3.286-3.261zM16 27.959c-1.42 0-2.631-0.905-3.090-2.168 0.995 0.314 2.031 0.474 3.090 0.474s2.095-0.16 3.090-0.474c-0.459 1.263-1.671 2.168-3.090 2.168zM17.897 19.219c0.729 0 1.321-0.593 1.321-1.321s-0.593-1.321-1.321-1.321-1.321 0.593-1.321 1.321 0.593 1.321 1.321 1.321zM17.897 17.592c0.168 0 0.305 0.137 0.305 0.305s-0.137 0.305-0.305 0.305-0.305-0.137-0.305-0.305 0.137-0.305 0.305-0.305zM17.897 15.424c0.729 0 1.321-0.593 1.321-1.321s-0.593-1.321-1.321-1.321-1.321 0.593-1.321 1.321 0.593 1.321 1.321 1.321zM17.897 13.798c0.168 0 0.305 0.137 0.305 0.305s-0.137 0.305-0.305 0.305-0.305-0.137-0.305-0.305 0.137-0.305 0.305-0.305zM14.103 19.219c0.729 0 1.321-0.593 1.321-1.321s-0.593-1.321-1.321-1.321-1.321 0.593-1.321 1.321 0.593 1.321 1.321 1.321zM14.103 17.592c0.168 0 0.305 0.137 0.305 0.305s-0.137 0.305-0.305 0.305-0.305-0.137-0.305-0.305 0.137-0.305 0.305-0.305zM14.103 15.424c0.729 0 1.321-0.593 1.321-1.321s-0.593-1.321-1.321-1.321-1.321 0.593-1.321 1.321 0.593 1.321 1.321 1.321zM14.103 13.798c0.168 0 0.305 0.137 0.305 0.305s-0.137 0.305-0.305 0.305-0.305-0.137-0.305-0.305 0.137-0.305 0.305-0.305z"></path>
    </symbol>
    <symbol id="one-finger-swipe-up" viewBox="0 0 32 32">
<path d="M18.991 27.988c-3.459-0.175-5.569-2.172-7.253-5.003-3.912-6.581-6.713-9.594-5.625-10.688 1.109-1.116 3.822 1.303 5.878 3.503v-10.291c0-0.844 0.672-1.509 1.5-1.509 0.834 0 1.5 0.675 1.5 1.509v9.491h1v-4.509c0-0.816 0.672-1.491 1.5-1.491 0.834 0 1.5 0.669 1.5 1.491v3.509h1v-2.509c0-0.828 0.672-1.491 1.5-1.491 0.834 0 1.5 0.669 1.5 1.491v3.509h1v-2.494c0-0.831 0.672-1.506 1.5-1.506 0.834 0 1.5 0.675 1.5 1.506v7.994c0 3.975-3.091 7.225-7 7.484v-9.034l3.25 3.25 0.75-0.75-4.5-4.5-4.5 4.5 0.75 0.75 3.25-3.25v9.037z"></path>
</symbol>
<symbol id="circle-up" viewBox="0 0 32 32">
<path d="M0 16c0 8.837 7.163 16 16 16s16-7.163 16-16-7.163-16-16-16-16 7.163-16 16zM29 16c0 7.18-5.82 13-13 13s-13-5.82-13-13 5.82-13 13-13 13 5.82 13 13z"></path>
<path d="M22.086 20.914l2.829-2.829-8.914-8.914-8.914 8.914 2.828 2.828 6.086-6.086z"></path>
</symbol>
  </defs>
</svg>
